<mxfile host="app.diagrams.net" agent="Mozilla/5.0 (Windows NT 10.0; Win64; x64) AppleWebKit/537.36 (KHTML, like Gecko) Chrome/131.0.0.0 Safari/537.36" version="25.0.3">
  <diagram name="Page-1" id="9hlryn8C9tm455uX0L5x">
    <mxGraphModel dx="1050" dy="522" grid="1" gridSize="10" guides="1" tooltips="1" connect="1" arrows="1" fold="1" page="1" pageScale="1" pageWidth="827" pageHeight="1169" math="0" shadow="0">
      <root>
        <mxCell id="0" />
        <mxCell id="1" parent="0" />
        <mxCell id="MKamS8ej1kTYHV7OLAK3-1" value="" style="edgeStyle=orthogonalEdgeStyle;rounded=0;orthogonalLoop=1;jettySize=auto;html=1;" edge="1" parent="1" source="MKamS8ej1kTYHV7OLAK3-2" target="MKamS8ej1kTYHV7OLAK3-4">
          <mxGeometry relative="1" as="geometry" />
        </mxCell>
        <mxCell id="MKamS8ej1kTYHV7OLAK3-2" value="start" style="ellipse;whiteSpace=wrap;html=1;aspect=fixed;" vertex="1" parent="1">
          <mxGeometry x="160" y="50" width="120" height="60" as="geometry" />
        </mxCell>
        <mxCell id="MKamS8ej1kTYHV7OLAK3-3" value="" style="edgeStyle=orthogonalEdgeStyle;rounded=0;orthogonalLoop=1;jettySize=auto;html=1;" edge="1" parent="1" source="MKamS8ej1kTYHV7OLAK3-4" target="MKamS8ej1kTYHV7OLAK3-6">
          <mxGeometry relative="1" as="geometry" />
        </mxCell>
        <mxCell id="MKamS8ej1kTYHV7OLAK3-4" value="รับค่า ax" style="shape=parallelogram;perimeter=parallelogramPerimeter;whiteSpace=wrap;html=1;fixedSize=1;" vertex="1" parent="1">
          <mxGeometry x="160" y="150" width="120" height="50" as="geometry" />
        </mxCell>
        <mxCell id="MKamS8ej1kTYHV7OLAK3-5" value="" style="edgeStyle=orthogonalEdgeStyle;rounded=0;orthogonalLoop=1;jettySize=auto;html=1;" edge="1" parent="1" source="MKamS8ej1kTYHV7OLAK3-6" target="MKamS8ej1kTYHV7OLAK3-8">
          <mxGeometry relative="1" as="geometry" />
        </mxCell>
        <mxCell id="MKamS8ej1kTYHV7OLAK3-6" value="รับค่า ay" style="shape=parallelogram;perimeter=parallelogramPerimeter;whiteSpace=wrap;html=1;fixedSize=1;" vertex="1" parent="1">
          <mxGeometry x="160" y="250" width="120" height="50" as="geometry" />
        </mxCell>
        <mxCell id="MKamS8ej1kTYHV7OLAK3-7" value="" style="edgeStyle=orthogonalEdgeStyle;rounded=0;orthogonalLoop=1;jettySize=auto;html=1;" edge="1" parent="1" source="MKamS8ej1kTYHV7OLAK3-8" target="MKamS8ej1kTYHV7OLAK3-10">
          <mxGeometry relative="1" as="geometry" />
        </mxCell>
        <mxCell id="MKamS8ej1kTYHV7OLAK3-8" value="รับค่า bx" style="shape=parallelogram;perimeter=parallelogramPerimeter;whiteSpace=wrap;html=1;fixedSize=1;" vertex="1" parent="1">
          <mxGeometry x="160" y="340" width="120" height="50" as="geometry" />
        </mxCell>
        <mxCell id="MKamS8ej1kTYHV7OLAK3-9" value="" style="edgeStyle=orthogonalEdgeStyle;rounded=0;orthogonalLoop=1;jettySize=auto;html=1;" edge="1" parent="1" source="MKamS8ej1kTYHV7OLAK3-10">
          <mxGeometry relative="1" as="geometry">
            <mxPoint x="220" y="550" as="targetPoint" />
          </mxGeometry>
        </mxCell>
        <mxCell id="MKamS8ej1kTYHV7OLAK3-10" value="แสดง by" style="shape=parallelogram;perimeter=parallelogramPerimeter;whiteSpace=wrap;html=1;fixedSize=1;" vertex="1" parent="1">
          <mxGeometry x="160" y="450" width="120" height="50" as="geometry" />
        </mxCell>
        <mxCell id="MKamS8ej1kTYHV7OLAK3-14" value="" style="edgeStyle=orthogonalEdgeStyle;rounded=0;orthogonalLoop=1;jettySize=auto;html=1;" edge="1" parent="1" source="MKamS8ej1kTYHV7OLAK3-12" target="MKamS8ej1kTYHV7OLAK3-13">
          <mxGeometry relative="1" as="geometry" />
        </mxCell>
        <mxCell id="MKamS8ej1kTYHV7OLAK3-12" value="x =&amp;nbsp;&amp;nbsp;( ax + bx ) / 2" style="rounded=0;whiteSpace=wrap;html=1;" vertex="1" parent="1">
          <mxGeometry x="145" y="555" width="150" height="60" as="geometry" />
        </mxCell>
        <mxCell id="MKamS8ej1kTYHV7OLAK3-16" value="" style="edgeStyle=orthogonalEdgeStyle;rounded=0;orthogonalLoop=1;jettySize=auto;html=1;" edge="1" parent="1" source="MKamS8ej1kTYHV7OLAK3-13" target="MKamS8ej1kTYHV7OLAK3-15">
          <mxGeometry relative="1" as="geometry" />
        </mxCell>
        <mxCell id="MKamS8ej1kTYHV7OLAK3-13" value="y =&amp;nbsp;&amp;nbsp;( ay + by ) / 2" style="rounded=0;whiteSpace=wrap;html=1;" vertex="1" parent="1">
          <mxGeometry x="145" y="680" width="150" height="60" as="geometry" />
        </mxCell>
        <mxCell id="MKamS8ej1kTYHV7OLAK3-18" value="" style="edgeStyle=orthogonalEdgeStyle;rounded=0;orthogonalLoop=1;jettySize=auto;html=1;" edge="1" parent="1" source="MKamS8ej1kTYHV7OLAK3-15" target="MKamS8ej1kTYHV7OLAK3-17">
          <mxGeometry relative="1" as="geometry" />
        </mxCell>
        <mxCell id="MKamS8ej1kTYHV7OLAK3-15" value="แสดง ( x , y )" style="shape=parallelogram;perimeter=parallelogramPerimeter;whiteSpace=wrap;html=1;fixedSize=1;" vertex="1" parent="1">
          <mxGeometry x="115" y="770" width="210" height="50" as="geometry" />
        </mxCell>
        <mxCell id="MKamS8ej1kTYHV7OLAK3-17" value="end" style="ellipse;whiteSpace=wrap;html=1;aspect=fixed;" vertex="1" parent="1">
          <mxGeometry x="160" y="870" width="120" height="60" as="geometry" />
        </mxCell>
      </root>
    </mxGraphModel>
  </diagram>
</mxfile>
